<svg id="Слой_1" data-name="Слой 1" xmlns="http://www.w3.org/2000/svg" viewBox="0 0 346.79 49.29"><defs><style>.cls-1,.cls-2{fill:none}.cls-1{clip-rule:evenodd}.cls-3{clip-path:url(#clip-path)}.cls-4{clip-path:url(#clip-path-2)}.cls-5{clip-path:url(#clip-path-3)}.cls-6{clip-path:url(#clip-path-5)}.cls-7{clip-path:url(#clip-path-7)}.cls-8{clip-path:url(#clip-path-9)}.cls-9{clip-path:url(#clip-path-11)}.cls-10{clip-path:url(#clip-path-13)}.cls-11{clip-path:url(#clip-path-15)}.cls-12{clip-path:url(#clip-path-17)}.cls-13{clip-path:url(#clip-path-19)}.cls-14{clip-path:url(#clip-path-21)}.cls-15{clip-path:url(#clip-path-23)}.cls-16{clip-path:url(#clip-path-25)}.cls-17{clip-path:url(#clip-path-27)}.cls-18{clip-path:url(#clip-path-29)}.cls-19{isolation:isolate}.cls-20{clip-path:url(#clip-path-31)}.cls-21{clip-path:url(#clip-path-32)}.cls-22{clip-path:url(#clip-path-34)}.cls-23{clip-path:url(#clip-path-36)}.cls-24{clip-path:url(#clip-path-38)}.cls-25{clip-path:url(#clip-path-39)}.cls-26{fill:#fed600}.cls-27{clip-path:url(#clip-path-41)}.cls-28{clip-path:url(#clip-path-44)}</style><clipPath id="clip-path" transform="translate(5 4.86)"><path class="cls-1" d="M121.5 9.49a6.24 6.24 0 0 0-6.23 6.25v8a6.23 6.23 0 1 0 12.46 0v-8a6.24 6.24 0 0 0-6.23-6.25zm2.67 14.29a2.67 2.67 0 1 1-5.34 0v-8a2.67 2.67 0 1 1 5.34 0z"/></clipPath><clipPath id="clip-path-2" transform="translate(5 4.86)"><path class="cls-2" d="M-47-31H977v4200H-47z"/></clipPath><clipPath id="clip-path-3" transform="translate(5 4.86)"><path class="cls-1" d="M93.72 26h-8.5a.2.2 0 0 1-.2-.2V10.14a.2.2 0 0 0-.2-.2h-3.16a.2.2 0 0 0-.2.2v19.25a.2.2 0 0 0 .2.2h12.06a.2.2 0 0 0 .2-.2v-3.18a.2.2 0 0 0-.2-.2"/></clipPath><clipPath id="clip-path-5" transform="translate(5 4.86)"><path class="cls-1" d="M146.19 9.94H143a.2.2 0 0 0-.2.18l-1.29 11.83a.2.2 0 0 1-.38.06l-1.8-3.92a.2.2 0 0 0-.18-.12h-.64a.2.2 0 0 0-.18.12L136.55 22a.2.2 0 0 1-.38-.06l-1.29-11.83a.2.2 0 0 0-.2-.18h-3.18a.2.2 0 0 0-.2.22l2.1 19.25a.2.2 0 0 0 .2.18h3.25a.2.2 0 0 0 .18-.12l1.63-3.55a.2.2 0 0 1 .36 0l1.63 3.55a.2.2 0 0 0 .18.12h3.25a.2.2 0 0 0 .2-.18l2.1-19.25a.2.2 0 0 0-.2-.22"/></clipPath><clipPath id="clip-path-7" transform="translate(5 4.86)"><path class="cls-1" d="M76.82 9.94H64.76a.2.2 0 0 0-.2.2v19.25a.2.2 0 0 0 .2.2h12.06a.2.2 0 0 0 .2-.2v-3.18a.2.2 0 0 0-.2-.2h-8.5a.2.2 0 0 1-.2-.2v-4.06a.2.2 0 0 1 .2-.2h8.5a.2.2 0 0 0 .2-.2v-3.18a.2.2 0 0 0-.2-.2h-8.5a.2.2 0 0 1-.2-.2v-4.06a.2.2 0 0 1 .2-.2h8.5a.2.2 0 0 0 .2-.2v-3.17a.2.2 0 0 0-.2-.2"/></clipPath><clipPath id="clip-path-9" transform="translate(5 4.86)"><path class="cls-1" d="M110.63 26h-8.5a.2.2 0 0 1-.2-.2V10.14a.2.2 0 0 0-.2-.2h-3.16a.2.2 0 0 0-.2.2v19.25a.2.2 0 0 0 .2.2h12.06a.2.2 0 0 0 .2-.2v-3.18a.2.2 0 0 0-.2-.2"/></clipPath><clipPath id="clip-path-11" transform="translate(5 4.86)"><path class="cls-1" d="M60.72 9.94h-3.45a.2.2 0 0 0-.18.12l-3 7.08a.2.2 0 0 1-.36 0l-3-7.08a.2.2 0 0 0-.18-.12h-3.49a.2.2 0 0 0-.18.28l5.24 12.27a.19.19 0 0 1 0 .08v6.82a.2.2 0 0 0 .2.2h3.16a.2.2 0 0 0 .2-.2v-6.91a.2.2 0 0 1 0-.08l5.22-12.18a.2.2 0 0 0-.18-.28"/></clipPath><clipPath id="clip-path-13" transform="translate(5 4.86)"><path class="cls-1" d="M223.61 9.94h-12.06a.2.2 0 0 0-.2.2v19.25a.2.2 0 0 0 .2.2h12.06a.2.2 0 0 0 .2-.2v-3.18a.2.2 0 0 0-.2-.2h-8.5a.2.2 0 0 1-.2-.2v-4.06a.2.2 0 0 1 .2-.2h8.5a.2.2 0 0 0 .2-.2v-3.18a.2.2 0 0 0-.2-.2h-8.5a.2.2 0 0 1-.2-.2v-4.06a.2.2 0 0 1 .2-.2h8.5a.2.2 0 0 0 .2-.2v-3.17a.2.2 0 0 0-.2-.2"/></clipPath><clipPath id="clip-path-15" transform="translate(5 4.86)"><path class="cls-1" d="M189.81 9.94h-12.06a.2.2 0 0 0-.2.2v3.18a.2.2 0 0 0 .2.2h4.05a.2.2 0 0 1 .2.2v12.1a.2.2 0 0 1-.2.2h-4.05a.2.2 0 0 0-.2.2v3.18a.2.2 0 0 0 .2.2h12.06a.2.2 0 0 0 .2-.2v-3.19a.2.2 0 0 0-.2-.2h-4.05a.2.2 0 0 1-.2-.2v-12.1a.2.2 0 0 1 .2-.2h4.05a.2.2 0 0 0 .2-.2v-3.17a.2.2 0 0 0-.2-.2"/></clipPath><clipPath id="clip-path-17" transform="translate(5 4.86)"><path class="cls-1" d="M206.91 15.66A5.85 5.85 0 0 0 201 9.94h-6.39a.2.2 0 0 0-.2.2v19.25a.2.2 0 0 0 .2.2H201a5.81 5.81 0 0 0 4.32-9.75.1.1 0 0 1 0-.13 5.79 5.79 0 0 0 1.55-4m-3.56 8.2a2.26 2.26 0 0 1-2.24 2.09h-2.86a.2.2 0 0 1-.2-.2v-4.05a.2.2 0 0 1 .2-.2h2.91a2.23 2.23 0 0 1 2.22 2.31m0-8a2.26 2.26 0 0 1-2.27 2.14h-2.86a.2.2 0 0 1-.2-.2v-4.09a.2.2 0 0 1 .2-.2h2.91a2.23 2.23 0 0 1 2.22 2.31"/></clipPath><clipPath id="clip-path-19" transform="translate(5 4.86)"><path class="cls-1" d="M173.73 9.94h-3.28a.2.2 0 0 0-.19.15l-3.2 11.77a.2.2 0 0 1-.38 0l-3.2-11.77a.2.2 0 0 0-.19-.15H160a.2.2 0 0 0-.19.25l5.23 19.25a.2.2 0 0 0 .19.15h3.26a.2.2 0 0 0 .19-.15l5.23-19.25a.2.2 0 0 0-.19-.25"/></clipPath><clipPath id="clip-path-21" transform="translate(5 4.86)"><path class="cls-1" d="M285.89 9.94h-12.06a.2.2 0 0 0-.2.2v19.25a.2.2 0 0 0 .2.2H277a.2.2 0 0 0 .2-.2v-7.64a.2.2 0 0 1 .2-.2h8.5a.2.2 0 0 0 .2-.2v-3.18a.2.2 0 0 0-.2-.2h-8.5a.2.2 0 0 1-.2-.2v-4.06a.2.2 0 0 1 .2-.2h8.5a.2.2 0 0 0 .2-.2v-3.17a.2.2 0 0 0-.2-.2"/></clipPath><clipPath id="clip-path-23" transform="translate(5 4.86)"><path class="cls-1" d="M246.13 9.49a6.24 6.24 0 0 0-6.31 6.25v7.94a6.23 6.23 0 1 0 12.46.09v-.69a.2.2 0 0 0-.2-.2h-3.16a.2.2 0 0 0-.2.2v.64a2.71 2.71 0 0 1-2.59 2.73 2.67 2.67 0 0 1-2.74-2.68v-8a2.71 2.71 0 0 1 2.61-2.7 2.67 2.67 0 0 1 2.74 2.68v.69a.2.2 0 0 0 .2.2h3.16a.2.2 0 0 0 .2-.2v-.6a6.3 6.3 0 0 0-6.15-6.34"/></clipPath><clipPath id="clip-path-25" transform="translate(5 4.86)"><path class="cls-1" d="M302.79 9.94h-12.06a.2.2 0 0 0-.2.2v19.25a.2.2 0 0 0 .2.2h3.16a.2.2 0 0 0 .2-.2v-7.64a.2.2 0 0 1 .2-.2h8.5a.2.2 0 0 0 .2-.2v-3.18a.2.2 0 0 0-.2-.2h-8.5a.2.2 0 0 1-.2-.2v-4.06a.2.2 0 0 1 .2-.2h8.5a.2.2 0 0 0 .2-.2v-3.17a.2.2 0 0 0-.2-.2"/></clipPath><clipPath id="clip-path-27" transform="translate(5 4.86)"><path class="cls-1" d="M319.69 9.94h-12.06a.2.2 0 0 0-.2.2v19.25a.2.2 0 0 0 .2.2h12.06a.2.2 0 0 0 .2-.2v-3.18a.2.2 0 0 0-.2-.2h-8.5a.2.2 0 0 1-.2-.2v-4.06a.2.2 0 0 1 .2-.2h8.5a.2.2 0 0 0 .2-.2v-3.18a.2.2 0 0 0-.2-.2h-8.5a.2.2 0 0 1-.2-.2v-4.06a.2.2 0 0 1 .2-.2h8.5a.2.2 0 0 0 .2-.2v-3.17a.2.2 0 0 0-.2-.2"/></clipPath><clipPath id="clip-path-29" transform="translate(5 4.86)"><path class="cls-2" d="M324.34 9.94h12.46v19.64h-12.46z"/></clipPath><clipPath id="clip-path-31" transform="translate(5 4.86)"><path class="cls-2" d="M324 9h13v21h-13z"/></clipPath><clipPath id="clip-path-32" transform="translate(5 4.86)"><path class="cls-1" d="M328.09 13.51h8.5a.2.2 0 0 0 .2-.2v-3.17a.2.2 0 0 0-.2-.2h-12.05a.2.2 0 0 0-.2.2v19.25a.2.2 0 0 0 .2.2h12.06a.2.2 0 0 0 .2-.2v-3.18a.2.2 0 0 0-.2-.2h-8.5a.2.2 0 0 1-.2-.2v-4.06a.2.2 0 0 1 .2-.2h8.5a.2.2 0 0 0 .2-.2v-3.18a.2.2 0 0 0-.2-.2h-8.5a.2.2 0 0 1-.2-.2v-4.06a.2.2 0 0 1 .2-.2"/></clipPath><clipPath id="clip-path-34" transform="translate(5 4.86)"><path class="cls-1" d="M263 9.49a6.24 6.24 0 0 0-6.23 6.25v8a6.23 6.23 0 1 0 12.46 0v-8A6.24 6.24 0 0 0 263 9.49zm2.67 14.29a2.67 2.67 0 1 1-5.34 0v-8a2.67 2.67 0 1 1 5.34 0z"/></clipPath><clipPath id="clip-path-36" transform="translate(5 4.86)"><path class="cls-2" d="M0 .14h35.21v39.29H0z"/></clipPath><clipPath id="clip-path-38" transform="translate(5 4.86)"><path class="cls-2" d="M0 0h36v40H0z"/></clipPath><clipPath id="clip-path-39" transform="translate(5 4.86)"><path class="cls-1" d="M7.34 39.43L0 .14h35.21l-7.34 39.29H7.34z"/></clipPath><clipPath id="clip-path-41" transform="translate(5 4.86)"><path class="cls-1" d="M35.21 39.43H0V.14h35.21v39.29z"/></clipPath><clipPath id="clip-path-44" transform="translate(5 4.86)"><path class="cls-1" d="M0 .14l7.34 39.29h20.53L35.21.14zm14.13 3.55l3.39 1.8-5.72 5.73zm5.59 3.7l5.72 8.4L13.63 21l-3-4.46zM6.43 18.8L3.49 3h7.81zm2.77.85l3.39 5 10.26-4.52-6.63 8.38L7.84 24zm16.26 16.87H9.74L8 27.44l9 4.74L29.11 17zM27.7 14l-3.28-4.85 5 2.65zM19.1 3h12.62l-1.14 6.13z"/></clipPath></defs><title>logo</title><g class="cls-3"><path d="M115.27 9.35h22.46v30.54h-22.46z" class="cls-4"/></g><g class="cls-5"><path d="M81.47 9.8h22.46v29.64H81.47z" class="cls-4"/></g><g class="cls-6"><path d="M131.31 9.8h25.08v29.64h-25.08z" class="cls-4"/></g><g class="cls-7"><path d="M64.56 9.8h22.46v29.64H64.56z" class="cls-4"/></g><g class="cls-8"><path d="M98.37 9.8h22.46v29.64H98.37z" class="cls-4"/></g><g class="cls-9"><path d="M46.86 9.8h24.05v29.64H46.86z" class="cls-4"/></g><g class="cls-10"><path d="M211.35 9.8h22.46v29.64h-22.46z" class="cls-4"/></g><g class="cls-11"><path d="M177.55 9.8h22.46v29.64h-22.46z" class="cls-4"/></g><g class="cls-12"><path d="M194.45 9.8h22.45v29.64h-22.45z" class="cls-4"/></g><g class="cls-13"><path d="M159.82 9.8h24.11v29.64h-24.11z" class="cls-4"/></g><g class="cls-14"><path d="M273.63 9.8h22.46v29.64h-22.46z" class="cls-4"/></g><g class="cls-15"><path d="M239.82 9.35h22.46v30.54h-22.46z" class="cls-4"/></g><g class="cls-16"><path d="M290.53 9.8h22.46v29.64h-22.46z" class="cls-4"/></g><g class="cls-17"><path d="M307.43 9.8h22.46v29.64h-22.46z" class="cls-4"/></g><g class="cls-18"><g class="cls-4"><g class="cls-19"><g class="cls-20"><g class="cls-21"><path d="M324.34 9.8h22.46v29.64h-22.46z" class="cls-20"/></g></g></g></g></g><g class="cls-22"><path d="M256.73 9.35h22.46v30.54h-22.46z" class="cls-4"/></g><g class="cls-23"><g class="cls-4"><g class="cls-19"><g class="cls-24"><g class="cls-25"><g class="cls-24"><path class="cls-26" d="M0 0h45.21v49.29H0z"/></g></g></g></g></g></g><g class="cls-27"><g class="cls-4"><g class="cls-19"><g class="cls-24"><g class="cls-28"><path d="M0 0h45.21v49.29H0z" class="cls-24"/></g></g></g></g></g></svg>