<svg id="Слой_1" data-name="Слой 1" xmlns="http://www.w3.org/2000/svg" xmlns:xlink="http://www.w3.org/1999/xlink" viewBox="0 0 346.79 49.29"><defs><style>.cls-1,.cls-2{fill:none;}.cls-1{clip-rule:evenodd;}.cls-3{clip-path:url(#clip-path);}.cls-4{clip-path:url(#clip-path-2);}.cls-5{clip-path:url(#clip-path-3);}.cls-6{clip-path:url(#clip-path-5);}.cls-7{clip-path:url(#clip-path-7);}.cls-8{clip-path:url(#clip-path-9);}.cls-9{clip-path:url(#clip-path-11);}.cls-10{clip-path:url(#clip-path-13);}.cls-11{clip-path:url(#clip-path-15);}.cls-12{clip-path:url(#clip-path-17);}.cls-13{clip-path:url(#clip-path-19);}.cls-14{clip-path:url(#clip-path-21);}.cls-15{clip-path:url(#clip-path-23);}.cls-16{clip-path:url(#clip-path-25);}.cls-17{clip-path:url(#clip-path-27);}.cls-18{clip-path:url(#clip-path-29);}.cls-19{isolation:isolate;}.cls-20{clip-path:url(#clip-path-31);}.cls-21{clip-path:url(#clip-path-32);}.cls-22{clip-path:url(#clip-path-34);}.cls-23{clip-path:url(#clip-path-36);}.cls-24{clip-path:url(#clip-path-38);}.cls-25{clip-path:url(#clip-path-39);}.cls-26{fill:#fed600;}.cls-27{clip-path:url(#clip-path-41);}.cls-28{clip-path:url(#clip-path-44);}</style><clipPath id="clip-path" transform="translate(5 4.86)"><path class="cls-1" d="M121.5,9.49a6.24,6.24,0,0,0-6.23,6.25v8a6.23,6.23,0,1,0,12.46,0v-8A6.24,6.24,0,0,0,121.5,9.49Zm2.67,14.29a2.67,2.67,0,1,1-5.34,0v-8a2.67,2.67,0,1,1,5.34,0Z"/></clipPath><clipPath id="clip-path-2" transform="translate(5 4.86)"><rect class="cls-2" x="-47" y="-31" width="1024" height="4200"/></clipPath><clipPath id="clip-path-3" transform="translate(5 4.86)"><path class="cls-1" d="M93.72,26h-8.5a.2.2,0,0,1-.2-.2V10.14a.2.2,0,0,0-.2-.2H81.66a.2.2,0,0,0-.2.2V29.39a.2.2,0,0,0,.2.2H93.72a.2.2,0,0,0,.2-.2V26.21a.2.2,0,0,0-.2-.2"/></clipPath><clipPath id="clip-path-5" transform="translate(5 4.86)"><path class="cls-1" d="M146.19,9.94H143a.2.2,0,0,0-.2.18l-1.29,11.83a.2.2,0,0,1-.38.06l-1.8-3.92a.2.2,0,0,0-.18-.12h-.64a.2.2,0,0,0-.18.12L136.55,22a.2.2,0,0,1-.38-.06l-1.29-11.83a.2.2,0,0,0-.2-.18h-3.18a.2.2,0,0,0-.2.22l2.1,19.25a.2.2,0,0,0,.2.18h3.25a.2.2,0,0,0,.18-.12l1.63-3.55a.2.2,0,0,1,.36,0l1.63,3.55a.2.2,0,0,0,.18.12h3.25a.2.2,0,0,0,.2-.18l2.1-19.25a.2.2,0,0,0-.2-.22"/></clipPath><clipPath id="clip-path-7" transform="translate(5 4.86)"><path class="cls-1" d="M76.82,9.94H64.76a.2.2,0,0,0-.2.2V29.39a.2.2,0,0,0,.2.2H76.82a.2.2,0,0,0,.2-.2V26.21a.2.2,0,0,0-.2-.2h-8.5a.2.2,0,0,1-.2-.2V21.75a.2.2,0,0,1,.2-.2h8.5a.2.2,0,0,0,.2-.2V18.17a.2.2,0,0,0-.2-.2h-8.5a.2.2,0,0,1-.2-.2V13.71a.2.2,0,0,1,.2-.2h8.5a.2.2,0,0,0,.2-.2V10.14a.2.2,0,0,0-.2-.2"/></clipPath><clipPath id="clip-path-9" transform="translate(5 4.86)"><path class="cls-1" d="M110.63,26h-8.5a.2.2,0,0,1-.2-.2V10.14a.2.2,0,0,0-.2-.2H98.57a.2.2,0,0,0-.2.2V29.39a.2.2,0,0,0,.2.2h12.06a.2.2,0,0,0,.2-.2V26.21a.2.2,0,0,0-.2-.2"/></clipPath><clipPath id="clip-path-11" transform="translate(5 4.86)"><path class="cls-1" d="M60.72,9.94H57.27a.2.2,0,0,0-.18.12l-3,7.08a.2.2,0,0,1-.36,0l-3-7.08a.2.2,0,0,0-.18-.12H47.06a.2.2,0,0,0-.18.28l5.24,12.27a.19.19,0,0,1,0,.08v6.82a.2.2,0,0,0,.2.2h3.16a.2.2,0,0,0,.2-.2V22.48a.2.2,0,0,1,0-.08L60.9,10.22a.2.2,0,0,0-.18-.28"/></clipPath><clipPath id="clip-path-13" transform="translate(5 4.86)"><path class="cls-1" d="M223.61,9.94H211.55a.2.2,0,0,0-.2.2V29.39a.2.2,0,0,0,.2.2h12.06a.2.2,0,0,0,.2-.2V26.21a.2.2,0,0,0-.2-.2h-8.5a.2.2,0,0,1-.2-.2V21.75a.2.2,0,0,1,.2-.2h8.5a.2.2,0,0,0,.2-.2V18.17a.2.2,0,0,0-.2-.2h-8.5a.2.2,0,0,1-.2-.2V13.71a.2.2,0,0,1,.2-.2h8.5a.2.2,0,0,0,.2-.2V10.14a.2.2,0,0,0-.2-.2"/></clipPath><clipPath id="clip-path-15" transform="translate(5 4.86)"><path class="cls-1" d="M189.81,9.94H177.75a.2.2,0,0,0-.2.2v3.18a.2.2,0,0,0,.2.2h4.05a.2.2,0,0,1,.2.2v12.1a.2.2,0,0,1-.2.2h-4.05a.2.2,0,0,0-.2.2v3.18a.2.2,0,0,0,.2.2h12.06a.2.2,0,0,0,.2-.2V26.21a.2.2,0,0,0-.2-.2h-4.05a.2.2,0,0,1-.2-.2V13.71a.2.2,0,0,1,.2-.2h4.05a.2.2,0,0,0,.2-.2V10.14a.2.2,0,0,0-.2-.2"/></clipPath><clipPath id="clip-path-17" transform="translate(5 4.86)"><path class="cls-1" d="M206.91,15.66A5.85,5.85,0,0,0,201,9.94h-6.39a.2.2,0,0,0-.2.2V29.39a.2.2,0,0,0,.2.2H201a5.81,5.81,0,0,0,4.32-9.75.1.1,0,0,1,0-.13,5.79,5.79,0,0,0,1.55-4m-3.56,8.2A2.26,2.26,0,0,1,201.07,26h-2.86a.2.2,0,0,1-.2-.2V21.75a.2.2,0,0,1,.2-.2h2.91a2.23,2.23,0,0,1,2.22,2.31m0-8A2.26,2.26,0,0,1,201.07,18h-2.86a.2.2,0,0,1-.2-.2V13.71a.2.2,0,0,1,.2-.2h2.91a2.23,2.23,0,0,1,2.22,2.31"/></clipPath><clipPath id="clip-path-19" transform="translate(5 4.86)"><path class="cls-1" d="M173.73,9.94h-3.28a.2.2,0,0,0-.19.15l-3.2,11.77a.2.2,0,0,1-.38,0l-3.2-11.77a.2.2,0,0,0-.19-.15H160a.2.2,0,0,0-.19.25l5.23,19.25a.2.2,0,0,0,.19.15h3.26a.2.2,0,0,0,.19-.15l5.23-19.25a.2.2,0,0,0-.19-.25"/></clipPath><clipPath id="clip-path-21" transform="translate(5 4.86)"><path class="cls-1" d="M285.89,9.94H273.83a.2.2,0,0,0-.2.2V29.39a.2.2,0,0,0,.2.2H277a.2.2,0,0,0,.2-.2V21.75a.2.2,0,0,1,.2-.2h8.5a.2.2,0,0,0,.2-.2V18.17a.2.2,0,0,0-.2-.2h-8.5a.2.2,0,0,1-.2-.2V13.71a.2.2,0,0,1,.2-.2h8.5a.2.2,0,0,0,.2-.2V10.14a.2.2,0,0,0-.2-.2"/></clipPath><clipPath id="clip-path-23" transform="translate(5 4.86)"><path class="cls-1" d="M246.13,9.49a6.24,6.24,0,0,0-6.31,6.25v7.94a6.23,6.23,0,1,0,12.46.09v-.69a.2.2,0,0,0-.2-.2h-3.16a.2.2,0,0,0-.2.2v.64a2.71,2.71,0,0,1-2.59,2.73,2.67,2.67,0,0,1-2.74-2.68v-8A2.71,2.71,0,0,1,246,13.07a2.67,2.67,0,0,1,2.74,2.68v.69a.2.2,0,0,0,.2.2h3.16a.2.2,0,0,0,.2-.2v-.6a6.3,6.3,0,0,0-6.15-6.34"/></clipPath><clipPath id="clip-path-25" transform="translate(5 4.86)"><path class="cls-1" d="M302.79,9.94H290.73a.2.2,0,0,0-.2.2V29.39a.2.2,0,0,0,.2.2h3.16a.2.2,0,0,0,.2-.2V21.75a.2.2,0,0,1,.2-.2h8.5a.2.2,0,0,0,.2-.2V18.17a.2.2,0,0,0-.2-.2h-8.5a.2.2,0,0,1-.2-.2V13.71a.2.2,0,0,1,.2-.2h8.5a.2.2,0,0,0,.2-.2V10.14a.2.2,0,0,0-.2-.2"/></clipPath><clipPath id="clip-path-27" transform="translate(5 4.86)"><path class="cls-1" d="M319.69,9.94H307.63a.2.2,0,0,0-.2.2V29.39a.2.2,0,0,0,.2.2h12.06a.2.2,0,0,0,.2-.2V26.21a.2.2,0,0,0-.2-.2h-8.5a.2.2,0,0,1-.2-.2V21.75a.2.2,0,0,1,.2-.2h8.5a.2.2,0,0,0,.2-.2V18.17a.2.2,0,0,0-.2-.2h-8.5a.2.2,0,0,1-.2-.2V13.71a.2.2,0,0,1,.2-.2h8.5a.2.2,0,0,0,.2-.2V10.14a.2.2,0,0,0-.2-.2"/></clipPath><clipPath id="clip-path-29" transform="translate(5 4.86)"><rect class="cls-2" x="324.34" y="9.94" width="12.46" height="19.64"/></clipPath><clipPath id="clip-path-31" transform="translate(5 4.86)"><rect class="cls-2" x="324" y="9" width="13" height="21"/></clipPath><clipPath id="clip-path-32" transform="translate(5 4.86)"><path class="cls-1" d="M328.09,13.51h8.5a.2.2,0,0,0,.2-.2V10.14a.2.2,0,0,0-.2-.2H324.54a.2.2,0,0,0-.2.2V29.39a.2.2,0,0,0,.2.2H336.6a.2.2,0,0,0,.2-.2V26.21a.2.2,0,0,0-.2-.2h-8.5a.2.2,0,0,1-.2-.2V21.75a.2.2,0,0,1,.2-.2h8.5a.2.2,0,0,0,.2-.2V18.17a.2.2,0,0,0-.2-.2h-8.5a.2.2,0,0,1-.2-.2V13.71a.2.2,0,0,1,.2-.2"/></clipPath><clipPath id="clip-path-34" transform="translate(5 4.86)"><path class="cls-1" d="M263,9.49a6.24,6.24,0,0,0-6.23,6.25v8a6.23,6.23,0,1,0,12.46,0v-8A6.24,6.24,0,0,0,263,9.49Zm2.67,14.29a2.67,2.67,0,1,1-5.34,0v-8a2.67,2.67,0,1,1,5.34,0Z"/></clipPath><clipPath id="clip-path-36" transform="translate(5 4.86)"><rect class="cls-2" y="0.14" width="35.21" height="39.29"/></clipPath><clipPath id="clip-path-38" transform="translate(5 4.86)"><rect class="cls-2" width="36" height="40"/></clipPath><clipPath id="clip-path-39" transform="translate(5 4.86)"><polygon class="cls-1" points="7.34 39.43 0 0.14 35.21 0.14 27.87 39.43 7.34 39.43"/></clipPath><clipPath id="clip-path-41" transform="translate(5 4.86)"><polygon class="cls-1" points="35.21 39.43 0 39.43 0 19.78 0 0.14 35.21 0.14 35.21 39.43"/></clipPath><clipPath id="clip-path-44" transform="translate(5 4.86)"><path class="cls-1" d="M0,.14,7.34,39.43H27.87L35.21.14ZM14.13,3.69l3.39,1.8L11.8,11.22Zm5.59,3.7,5.72,8.4L13.63,21l-3-4.46ZM6.43,18.8,3.49,3h7.81Zm2.77.85,3.39,5,10.26-4.52-6.63,8.38L7.84,24ZM25.46,36.52H9.74L8,27.44,17,32.18,29.11,17ZM27.7,14,24.42,9.15l5,2.65ZM19.1,3H31.72L30.58,9.13Z"/></clipPath></defs><title>logo</title><g class="cls-3"><g class="cls-4"><rect x="115.27" y="9.35" width="22.46" height="30.54"/></g></g><g class="cls-5"><g class="cls-4"><rect x="81.47" y="9.8" width="22.46" height="29.64"/></g></g><g class="cls-6"><g class="cls-4"><rect x="131.31" y="9.8" width="25.08" height="29.64"/></g></g><g class="cls-7"><g class="cls-4"><rect x="64.56" y="9.8" width="22.46" height="29.64"/></g></g><g class="cls-8"><g class="cls-4"><rect x="98.37" y="9.8" width="22.46" height="29.64"/></g></g><g class="cls-9"><g class="cls-4"><rect x="46.86" y="9.8" width="24.05" height="29.64"/></g></g><g class="cls-10"><g class="cls-4"><rect x="211.35" y="9.8" width="22.46" height="29.64"/></g></g><g class="cls-11"><g class="cls-4"><rect x="177.55" y="9.8" width="22.46" height="29.64"/></g></g><g class="cls-12"><g class="cls-4"><rect x="194.45" y="9.8" width="22.45" height="29.64"/></g></g><g class="cls-13"><g class="cls-4"><rect x="159.82" y="9.8" width="24.11" height="29.64"/></g></g><g class="cls-14"><g class="cls-4"><rect x="273.63" y="9.8" width="22.46" height="29.64"/></g></g><g class="cls-15"><g class="cls-4"><rect x="239.82" y="9.35" width="22.46" height="30.54"/></g></g><g class="cls-16"><g class="cls-4"><rect x="290.53" y="9.8" width="22.46" height="29.64"/></g></g><g class="cls-17"><g class="cls-4"><rect x="307.43" y="9.8" width="22.46" height="29.64"/></g></g><g class="cls-18"><g class="cls-4"><g class="cls-19"><g class="cls-20"><g class="cls-21"><g class="cls-20"><rect x="324.34" y="9.8" width="22.46" height="29.64"/></g></g></g></g></g></g><g class="cls-22"><g class="cls-4"><rect x="256.73" y="9.35" width="22.46" height="30.54"/></g></g><g class="cls-23"><g class="cls-4"><g class="cls-19"><g class="cls-24"><g class="cls-25"><g class="cls-24"><rect class="cls-26" width="45.21" height="49.29"/></g></g></g></g></g></g><g class="cls-27"><g class="cls-4"><g class="cls-19"><g class="cls-24"><g class="cls-28"><g class="cls-24"><rect width="45.21" height="49.29"/></g></g></g></g></g></g></svg>